<svg width="382" height="144" viewBox="0 0 382 144" fill="none" xmlns="http://www.w3.org/2000/svg">
<rect width="382" height="144" fill="#243748"/>
<path d="M225.284 104.899L225.672 46.7842C232.913 46.4838 240.023 46.1434 247.144 45.9231C248.829 45.9509 250.507 46.1319 252.159 46.4638C258.587 47.4651 262.529 51.28 263.803 57.558C265.382 64.9251 265.231 72.5575 263.361 79.8565C261.355 87.6765 256.702 91.2311 248.618 91.5615C248.117 91.5615 247.615 91.5615 247.114 91.5615C241.638 91.6516 241.598 91.6516 241.909 97.2288C242.049 99.5317 242.003 102.285 242.293 104.899H225.284ZM242.17 77.2432C242.17 77.8533 242.396 79.6229 244.667 79.6229C246.939 79.6229 247.146 78.0137 247.146 77.2432C247.146 76.4727 247.234 67.1102 247.034 61.8335C247.034 61.1125 246.179 59.9424 244.596 59.9424C243.012 59.9424 242.293 61.0105 242.293 61.8335C242.17 64.5699 242.17 76.6331 242.17 77.2432Z" fill="#F3F8D6"/>
<path d="M271.783 104.899L272.17 46.7842C279.411 46.4838 286.522 46.1434 293.643 45.9231C295.327 45.9509 297.006 46.1319 298.657 46.4638C305.086 47.4651 309.028 51.28 310.301 57.558C311.881 64.9251 311.73 72.5575 309.86 79.8565C307.854 87.6765 303.201 91.2311 295.117 91.5615C294.616 91.5615 294.114 91.5615 293.613 91.5615C288.137 91.6516 288.097 91.6516 288.408 97.2288C288.548 99.5317 288.501 102.285 288.792 104.899H271.783ZM288.668 77.2432C288.668 77.8533 288.895 79.6229 291.166 79.6229C293.437 79.6229 293.644 78.0137 293.644 77.2432C293.644 76.4727 293.733 67.1102 293.533 61.8335C293.533 61.1125 292.678 59.9424 291.094 59.9424C289.51 59.9424 288.792 61.0105 288.792 61.8335C288.668 64.5699 288.668 76.6331 288.668 77.2432Z" fill="#F3F8D6"/>
<path d="M48 104.174C48.3252 101.17 48.6609 98.4264 48.8917 95.7029C49.1225 92.9794 49.2694 90.2559 49.4058 88.1933C54.0532 88.6438 58.5747 89.1946 63.1277 89.4949C64.586 89.5951 66.5582 89.2646 66.3904 87.4924C66.296 86.4911 64.8797 85.2495 63.7467 84.6287C62.0895 83.8933 60.3698 83.2937 58.6062 82.8364C53.2454 80.964 49.6995 77.2793 49.0491 71.9525C48.4542 67.3306 48.4542 62.6566 49.0491 58.0347C49.9198 51.8668 53.9378 47.8116 60.5155 46.61C67.4693 45.3517 74.6456 45.8277 81.3502 47.9918C80.6054 53.6991 79.8815 59.1961 79.1577 64.7933C76.6923 64.4228 74.0696 63.9222 71.426 63.6719C69.7829 63.4694 68.1158 63.5337 66.4953 63.8621C65.5091 64.0924 64.1663 65.0937 64.0614 65.8647C64.1623 66.954 64.7962 67.9339 65.7714 68.5081C67.4176 69.2685 69.1398 69.8689 70.9119 70.3004C78.9688 72.8136 81.665 75.9576 82.0217 84.058C82.2224 87.5451 82.0325 91.0427 81.4552 94.4913C80.2068 101.38 76.7343 104.504 69.4852 105.415C62.3095 106.4 54.9988 105.977 48 104.174Z" fill="#F3F8D6"/>
<path d="M335 104.899H318.281V45.9231H335V104.899Z" fill="#F3F8D6"/>
<path d="M181.187 106C180.754 106 180.322 105.982 179.89 105.964C169.363 105.471 160.089 98.9866 156.138 89.3569C152.187 79.7272 154.282 68.7121 161.502 61.1457C163.913 58.6498 165.177 55.2864 164.996 51.8447C164.978 51.5607 164.978 51.259 164.978 50.975C164.979 42.1525 172.235 35 181.187 35H181.673C190.487 35.3617 197.433 42.5289 197.395 51.2235C197.398 51.3657 197.392 51.508 197.377 51.6495C197.253 55.249 198.588 58.7492 201.087 61.3765C205.668 66.2823 208.208 72.7078 208.201 79.375C208.196 94.0773 196.104 105.995 181.187 106Z" fill="#B6DD76"/>
<path fill-rule="evenodd" clip-rule="evenodd" d="M184.87 55.486C184.173 58.4375 182.282 60.9836 179.631 62.5387C175.675 64.859 172.493 68.2575 170.472 72.3202C170.371 72.5725 170.272 72.8201 170.174 73.0637C169.13 75.6672 168.265 77.8228 168.081 80.5352C167.881 83.4895 168.525 87.0359 169.297 89.8278C172.522 99.6267 181.912 106.196 192.407 105.996C202.903 105.796 212.025 98.8739 214.859 88.9595C216.495 83.3203 215.902 77.2831 213.197 72.0544C211.712 69.2473 211.433 65.9744 212.42 62.964C212.473 62.8498 212.516 62.7312 212.547 62.6096C214.697 55.2651 210.538 47.5682 203.135 45.1906C199.445 44.0452 195.44 44.4168 192.035 46.2204C188.63 48.024 186.116 51.1053 185.069 54.7595C185.056 54.805 185.042 54.8499 185.029 54.8944C184.971 55.0926 184.914 55.2834 184.87 55.486ZM201.485 50.398C206.064 51.8827 208.532 56.5364 207.341 60.9169L207.322 60.9598L207.222 61.2637C205.774 65.6755 206.182 70.4714 208.346 74.5791C210.402 78.5646 210.848 83.1536 209.605 87.44L209.599 87.4606C207.44 95.0141 200.45 100.38 192.303 100.535C184.199 100.689 177.03 95.6479 174.535 88.2434C173.851 85.7357 173.401 82.9345 173.539 80.9039C173.662 79.0823 174.209 77.7114 175.346 74.8631C175.385 74.7647 175.425 74.6645 175.466 74.5625C177.014 71.5417 179.415 69 182.402 67.2476L182.402 67.2474C186.323 64.9473 189.15 61.1622 190.195 56.7393L190.205 56.6947L190.213 56.6601C190.214 56.6536 190.219 56.6375 190.227 56.6087L190.263 56.484L190.322 56.2846L190.322 56.2846L190.328 56.2618C190.961 54.0548 192.488 52.1628 194.598 51.045C196.704 49.9296 199.191 49.6933 201.485 50.398Z" fill="#F3F8D6"/>
<path d="M203.249 83.4355C203.249 89.52 198.31 94.4525 192.217 94.4525C190.882 94.4563 189.557 94.2091 188.314 93.7237C183.331 91.8446 180.407 86.6766 181.365 81.4448C182.324 76.213 186.891 72.4139 192.217 72.4183C193.099 72.4128 193.977 72.521 194.831 72.7405C199.772 73.9377 203.251 78.3574 203.249 83.4355Z" fill="#6D4D42"/>
<path d="M91.2581 45.9231H108.037C108.227 50.1285 108.328 54.3639 108.629 58.5893C109.04 64.3166 109.551 70.044 110.113 75.7613C110.213 76.7626 110.003 78.3346 111.597 78.2945C113.192 78.2545 113.122 76.7526 113.192 75.6311C113.443 71.6861 113.633 67.741 113.844 63.796C113.934 62.0137 114.044 59.7909 114.135 57.9385H122.068C122.068 58.6494 122.148 59.3102 122.178 59.941C122.409 65.2178 122.619 70.5046 122.86 75.7813C122.86 76.7025 122.86 77.7839 124.164 77.864C125.467 77.9441 125.708 76.8126 125.728 75.8614C125.909 66.6897 126.069 57.5213 126.21 48.3562C126.21 47.6153 126.21 46.8743 126.21 45.9431H145.064C143.409 65.2104 141.051 85.7386 139.754 104.829L121.626 104.788C121.255 100.994 120.874 96.9184 120.453 92.8932C120.272 91.5246 119.935 90.1809 119.45 88.8881C119.239 88.2973 118.447 87.5063 117.986 87.5264C117.293 87.7109 116.74 88.2298 116.511 88.9081C115.843 91.7918 115.291 94.6922 114.857 97.6093C114.506 100.012 114.365 102.445 114.135 104.829L95.8013 104.788L91.2581 45.9231Z" fill="#F3F8D6"/>
</svg>
