<svg width="144" height="144" viewBox="0 0 144 144" fill="none" xmlns="http://www.w3.org/2000/svg">
<rect width="144" height="144" fill="#243748"/>
<g clip-path="url(#clip0_1705_152)">
<path d="M66.6217 112.5C66.139 112.5 65.6563 112.48 65.1736 112.46C53.4179 111.91 43.0615 104.677 38.6497 93.9348C34.2378 83.1929 36.5767 70.9057 44.6398 62.4654C47.3322 59.6812 48.7431 55.9294 48.5414 52.0902C48.5213 51.7734 48.5213 51.4368 48.5213 51.12C48.5221 41.2787 56.6254 33.3 66.6217 33.3H67.1647C77.0076 33.7035 84.7641 41.6984 84.722 51.3972C84.7254 51.5559 84.7186 51.7146 84.7019 51.8724C84.5628 55.8877 86.0536 59.7921 88.8449 62.7228C93.9605 68.1952 96.7965 75.3628 96.7889 82.8C96.7828 99.2004 83.28 112.494 66.6217 112.5Z" fill="#B7EA64"/>
<path fill-rule="evenodd" clip-rule="evenodd" d="M70.7351 56.152C69.9568 59.4443 67.8447 62.2845 64.8846 64.0192C60.4674 66.6074 56.9136 70.3984 54.6563 74.9304C54.5441 75.2119 54.4332 75.488 54.324 75.7597C53.1576 78.664 52.1918 81.0685 51.9865 84.0942C51.763 87.3897 52.482 91.3456 53.345 94.46C56.9461 105.391 67.4314 112.718 79.1518 112.495C90.8723 112.272 101.059 104.551 104.224 93.4914C106.051 87.2009 105.389 80.4665 102.368 74.6339C100.71 71.5026 100.398 67.8517 101.501 64.4936C101.56 64.3662 101.607 64.2339 101.642 64.0982C104.043 55.9056 99.3989 47.3197 91.1312 44.6675C87.0112 43.3899 82.5384 43.8044 78.7359 45.8163C74.9334 47.8282 72.1264 51.2653 70.957 55.3416C70.9422 55.3923 70.9274 55.4424 70.9128 55.492C70.8474 55.7132 70.7845 55.926 70.7351 56.152ZM89.2891 50.4763C94.4023 52.1325 97.1589 57.3237 95.829 62.2101L95.8068 62.2579L95.6955 62.5969C94.0788 67.5184 94.5346 72.8683 96.9513 77.4505C99.2467 81.8962 99.7454 87.0151 98.3566 91.7964L98.3566 91.7964L98.35 91.8194C95.9386 100.245 88.1328 106.231 79.0353 106.404C69.9854 106.576 61.9805 100.952 59.1934 92.6926C58.4304 89.8953 57.9278 86.7705 58.0815 84.5055C58.2193 82.4735 58.8301 80.9443 60.0992 77.767C60.143 77.6572 60.1876 77.5454 60.2331 77.4316C61.9618 74.062 64.6431 71.2267 67.9792 69.272L67.9795 69.2718C72.3578 66.706 75.5146 62.4837 76.681 57.55L76.6927 57.5002L76.7012 57.4617C76.703 57.4545 76.7078 57.4365 76.7169 57.4043L76.7574 57.2652L76.8229 57.0428L76.8229 57.0428L76.8303 57.0173C77.5365 54.5554 79.2423 52.4449 81.5989 51.1981C83.9505 49.9539 86.7276 49.6903 89.2891 50.4763Z" fill="#F3F8D6"/>
<path d="M91.2588 87.3296C91.2588 94.1169 85.7433 99.6191 78.9396 99.6191C77.4483 99.6233 75.9695 99.3475 74.5805 98.806C69.0166 96.71 65.7509 90.9451 66.8213 85.109C67.8918 79.2729 72.9922 75.0352 78.9396 75.04C79.924 75.0338 80.905 75.1546 81.8583 75.3995C87.3766 76.7349 91.2614 81.6651 91.2588 87.3296Z" fill="#6D4D42"/>
</g>
<defs>
<clipPath id="clip0_1705_152">
<rect width="71.2" height="79.2" fill="white" transform="translate(36.45 33.3)"/>
</clipPath>
</defs>
</svg>
