<svg width="512" height="512" viewBox="0 0 512 512" fill="none" xmlns="http://www.w3.org/2000/svg">
<circle cx="256" cy="256" r="256" fill="#EBA337"/>
<path fill-rule="evenodd" clip-rule="evenodd" d="M223.391 135.254C231.171 132.243 238.761 129.305 245.965 126.34C253.542 123.221 262.067 118.737 271.245 113.91C304.31 96.5175 345.843 74.6715 382.02 96.1916C389.542 100.675 394.672 105.963 397.925 111.851C407.072 122.697 414.258 138.286 416.68 156.807C420.103 182.992 420.103 195.73 416.68 213.235C416.473 214.293 416.194 215.94 415.828 218.102C410.134 251.72 383.336 409.94 278.104 416.383C249.226 420.095 231.942 416.681 207.565 408.708C159.89 393.116 129.619 358.859 112.983 328.769C81.8606 278.653 90.5119 235.766 115.137 201.102C138.584 168.074 183.491 150.695 223.391 135.254Z" fill="#2F4034"/>
<path d="M245.965 126.34C201.821 144.512 143.156 161.633 115.137 201.102C89.8293 236.727 81.3933 281.037 115.663 332.953C146.945 380.361 230.337 400.58 292.709 355.8C349.825 314.781 354.997 254.567 372.146 214.572C389.295 174.577 425.362 122.025 382.02 96.1916C335.801 68.6985 280.843 111.985 245.965 126.34Z" fill="#8ABF51"/>
<path d="M372.146 107.642C351.153 95.5278 324.379 100.894 294.783 115.442C265.188 129.991 242.342 140.889 231.97 144.512C221.57 148.135 133.227 180.496 116.189 223.423C102.166 258.716 105.817 304.935 142.659 338.679C179.5 372.423 272.463 370.348 308.281 319.456C344.1 268.563 345.648 227.572 353.448 209.4C361.248 191.228 378.231 164.62 383.044 150.21C388.741 133.089 385.643 115.442 372.146 107.642Z" fill="#BADD55"/>
<circle cx="216.39" cy="256.383" r="59.4286" fill="url(#paint0_radial_1706_159)"/>
<defs>
<radialGradient id="paint0_radial_1706_159" cx="0" cy="0" r="1" gradientUnits="userSpaceOnUse" gradientTransform="translate(216.39 242.669) rotate(90) scale(73.1429)">
<stop stop-color="#895F51"/>
<stop offset="1" stop-color="#6D4D42"/>
</radialGradient>
</defs>
</svg>
